<svg width="158" height="42" viewBox="0 0 158 42" fill="none" xmlns="http://www.w3.org/2000/svg">
<path d="M22.0246 33.1115C22.0605 29.4401 21.1297 26.4545 19.9457 26.4429C18.7616 26.4314 17.7727 29.3983 17.7368 33.0696C17.7009 36.7411 18.6317 39.7267 19.8157 39.7383C20.9998 39.7499 21.9888 36.783 22.0246 33.1115Z" fill="#FF6129"/>
<path d="M15.1576 32.2777C17.1728 29.2086 18.0041 26.1937 17.0144 25.5438C16.0245 24.8939 13.5884 26.855 11.5732 29.9241C9.55797 32.9933 8.72669 36.0081 9.71645 36.6581C10.7063 37.308 13.1423 35.3469 15.1576 32.2777Z" fill="#FF6129"/>
<path d="M9.82334 27.8744C13.1781 26.3822 15.5074 24.2955 15.0261 23.2136C14.5449 22.1316 11.4353 22.4643 8.08062 23.9565C4.72593 25.4487 2.39655 27.5354 2.87779 28.6173C3.35902 29.6992 6.46865 29.3666 9.82334 27.8744Z" fill="#FF6129"/>
<path d="M14.6236 20.1795C14.8037 19.0092 12.008 17.6076 8.37917 17.0491C4.75028 16.4905 1.66249 16.9865 1.48236 18.1568C1.30223 19.3272 4.09797 20.7286 7.72684 21.2872C11.3557 21.8457 14.4435 21.3497 14.6236 20.1795Z" fill="#FF6129"/>
<path d="M15.9265 17.3917C16.7106 16.5045 15.1161 13.8142 12.3649 11.3827C9.61381 8.9513 6.74791 7.6995 5.96376 8.58674C5.17962 9.47401 6.77418 12.1643 9.52533 14.5958C12.2765 17.0272 15.1424 18.279 15.9265 17.3917Z" fill="#FF6129"/>
<path d="M18.5211 15.7623C19.6605 15.4399 19.7737 12.3146 18.774 8.7817C17.7743 5.24883 16.0402 2.64624 14.9009 2.96865C13.7615 3.29106 13.6483 6.41637 14.648 9.94927C15.6477 13.4821 17.3818 16.0847 18.5211 15.7623Z" fill="#FF6129"/>
<path d="M25.5668 10.0592C26.636 6.54673 26.5845 3.41979 25.4517 3.07498C24.3189 2.73017 22.5338 5.29805 21.4646 8.81053C20.3955 12.323 20.447 15.4499 21.5798 15.7947C22.7126 16.1395 24.4977 13.5717 25.5668 10.0592Z" fill="#FF6129"/>
<path d="M30.6011 14.8053C33.3993 12.4281 35.0461 9.76948 34.2794 8.8671C33.5128 7.9647 30.6229 9.16028 27.8249 11.5374C25.0267 13.9146 23.3799 16.5732 24.1465 17.4756C24.9132 18.378 27.803 17.1825 30.6011 14.8053Z" fill="#FF6129"/>
<path d="M32.2657 21.5215C35.9049 21.0347 38.7277 19.6886 38.5707 18.5149C38.4137 17.3413 35.3363 16.7846 31.6971 17.2714C28.058 17.7583 25.2351 19.1043 25.3921 20.278C25.5492 21.4516 28.6265 22.0084 32.2657 21.5215Z" fill="#FF6129"/>
<path d="M36.9603 28.9528C37.4628 27.8806 35.175 25.7484 31.8504 24.1903C28.5258 22.6322 25.4234 22.2384 24.9209 23.3105C24.4184 24.3828 26.7062 26.515 30.0308 28.0731C33.3554 29.6311 36.4579 30.025 36.9603 28.9528Z" fill="#FF6129"/>
<path d="M29.9671 36.864C30.9695 36.2338 30.1978 33.203 28.2435 30.0948C26.2892 26.9866 23.8922 24.9778 22.8898 25.6081C21.8874 26.2383 22.6591 29.269 24.6134 32.3773C26.5678 35.4855 28.9647 37.4943 29.9671 36.864Z" fill="#FF6129"/>
<path d="M57.336 15.096C58.4373 15.096 59.3893 15.3387 60.192 15.824C61.0133 16.2907 61.62 16.944 62.012 17.784V15.292H67.5V31H62.012V28.508C61.62 29.348 61.0133 30.0107 60.192 30.496C59.3893 30.9627 58.4373 31.196 57.336 31.196C56.0853 31.196 54.956 30.8787 53.948 30.244C52.94 29.5907 52.1467 28.6573 51.568 27.444C50.9893 26.212 50.7 24.7747 50.7 23.132C50.7 21.4893 50.9893 20.0613 51.568 18.848C52.1467 17.6347 52.94 16.7107 53.948 16.076C54.956 15.4227 56.0853 15.096 57.336 15.096ZM59.156 19.912C58.2973 19.912 57.5973 20.2013 57.056 20.78C56.5333 21.34 56.272 22.124 56.272 23.132C56.272 24.1587 56.5333 24.9613 57.056 25.54C57.5973 26.1 58.2973 26.38 59.156 26.38C59.9773 26.38 60.6587 26.0907 61.2 25.512C61.7413 24.9333 62.012 24.14 62.012 23.132C62.012 22.1427 61.7413 21.3587 61.2 20.78C60.6587 20.2013 59.9773 19.912 59.156 19.912ZM76.0319 10.28V31H70.5159V10.28H76.0319ZM85.2905 15.18C86.2425 15.18 87.0638 15.3387 87.7545 15.656C88.4638 15.9547 89.0705 16.44 89.5745 17.112V15.292H95.0625V38.504H89.5745V28.872C89.0145 29.6373 88.3892 30.216 87.6985 30.608C87.0078 30.9813 86.2052 31.168 85.2905 31.168C84.0212 31.168 82.8452 30.8413 81.7625 30.188C80.6985 29.516 79.8492 28.5827 79.2145 27.388C78.5798 26.1747 78.2625 24.7933 78.2625 23.244C78.2625 21.6947 78.5798 20.3133 79.2145 19.1C79.8492 17.868 80.6985 16.9067 81.7625 16.216C82.8452 15.5253 84.0212 15.18 85.2905 15.18ZM86.7185 19.94C85.9532 19.94 85.2812 20.22 84.7025 20.78C84.1238 21.34 83.8345 22.1613 83.8345 23.244C83.8345 24.308 84.1145 25.1013 84.6745 25.624C85.2532 26.128 85.9345 26.38 86.7185 26.38C87.4652 26.38 88.1278 26.1093 88.7065 25.568C89.2852 25.008 89.5745 24.196 89.5745 23.132C89.5745 22.068 89.2852 21.2747 88.7065 20.752C88.1278 20.2107 87.4652 19.94 86.7185 19.94ZM105.498 15.096C107.066 15.096 108.466 15.4227 109.698 16.076C110.949 16.7107 111.929 17.644 112.638 18.876C113.348 20.0893 113.702 21.508 113.702 23.132C113.702 24.7747 113.348 26.2027 112.638 27.416C111.929 28.6293 110.949 29.5627 109.698 30.216C108.466 30.8693 107.066 31.196 105.498 31.196C103.93 31.196 102.521 30.8693 101.27 30.216C100.02 29.5627 99.0397 28.6293 98.3304 27.416C97.6211 26.2027 97.2664 24.7747 97.2664 23.132C97.2664 21.4893 97.6211 20.0613 98.3304 18.848C99.0397 17.6347 100.02 16.7107 101.27 16.076C102.521 15.4227 103.93 15.096 105.498 15.096ZM105.498 19.856C104.733 19.856 104.098 20.136 103.594 20.696C103.09 21.256 102.838 22.068 102.838 23.132C102.838 24.2147 103.09 25.036 103.594 25.596C104.098 26.156 104.733 26.436 105.498 26.436C106.245 26.436 106.87 26.156 107.374 25.596C107.878 25.0173 108.13 24.196 108.13 23.132C108.13 22.068 107.878 21.256 107.374 20.696C106.87 20.136 106.245 19.856 105.498 19.856ZM139.343 15.292L135.451 31H129.291L126.911 21.228L124.475 31H118.287L114.451 15.292H119.911L121.619 25.792L124.083 15.292H129.935L132.511 25.876L134.247 15.292H139.343ZM145.296 15.292L148.656 24.084L151.764 15.292H157.868L147.928 38.504H141.88L145.716 30.328L139.164 15.292H145.296Z" fill="white"/>
</svg>
