<svg width="1072" height="154" viewBox="0 0 1072 154" fill="none" xmlns="http://www.w3.org/2000/svg">
<path opacity="0.1" d="M66.36 48.96C77.3733 48.96 86.8933 51.3867 94.92 56.24C103.133 60.9067 109.2 67.44 113.12 75.84V50.92H168V208H113.12V183.08C109.2 191.48 103.133 198.107 94.92 202.96C86.8933 207.627 77.3733 209.96 66.36 209.96C53.8533 209.96 42.56 206.787 32.48 200.44C22.4 193.907 14.4667 184.573 8.68 172.44C2.89333 160.12 1.04308e-07 145.747 1.04308e-07 129.32C1.04308e-07 112.893 2.89333 98.6133 8.68 86.48C14.4667 74.3467 22.4 65.1067 32.48 58.76C42.56 52.2267 53.8533 48.96 66.36 48.96ZM84.56 97.12C75.9733 97.12 68.9733 100.013 63.56 105.8C58.3333 111.4 55.72 119.24 55.72 129.32C55.72 139.587 58.3333 147.613 63.56 153.4C68.9733 159 75.9733 161.8 84.56 161.8C92.7733 161.8 99.5867 158.907 105 153.12C110.413 147.333 113.12 139.4 113.12 129.32C113.12 119.427 110.413 111.587 105 105.8C99.5867 100.013 92.7733 97.12 84.56 97.12ZM253.319 0.799997V208H198.159V0.799997H253.319ZM345.905 49.8C355.425 49.8 363.638 51.3867 370.545 54.56C377.638 57.5467 383.705 62.4 388.745 69.12V50.92H443.625V283.04H388.745V186.72C383.145 194.373 376.892 200.16 369.985 204.08C363.078 207.813 355.052 209.68 345.905 209.68C333.212 209.68 321.452 206.413 310.625 199.88C299.985 193.16 291.492 183.827 285.145 171.88C278.798 159.747 275.625 145.933 275.625 130.44C275.625 114.947 278.798 101.133 285.145 89C291.492 76.68 299.985 67.0667 310.625 60.16C321.452 53.2533 333.212 49.8 345.905 49.8ZM360.185 97.4C352.532 97.4 345.812 100.2 340.025 105.8C334.238 111.4 331.345 119.613 331.345 130.44C331.345 141.08 334.145 149.013 339.745 154.24C345.532 159.28 352.345 161.8 360.185 161.8C367.652 161.8 374.278 159.093 380.065 153.68C385.852 148.08 388.745 139.96 388.745 129.32C388.745 118.68 385.852 110.747 380.065 105.52C374.278 100.107 367.652 97.4 360.185 97.4ZM547.984 48.96C563.664 48.96 577.664 52.2267 589.984 58.76C602.491 65.1067 612.291 74.44 619.384 86.76C626.477 98.8933 630.024 113.08 630.024 129.32C630.024 145.747 626.477 160.027 619.384 172.16C612.291 184.293 602.491 193.627 589.984 200.16C577.664 206.693 563.664 209.96 547.984 209.96C532.304 209.96 518.211 206.693 505.704 200.16C493.197 193.627 483.397 184.293 476.304 172.16C469.211 160.027 465.664 145.747 465.664 129.32C465.664 112.893 469.211 98.6133 476.304 86.48C483.397 74.3467 493.197 65.1067 505.704 58.76C518.211 52.2267 532.304 48.96 547.984 48.96ZM547.984 96.56C540.331 96.56 533.984 99.36 528.944 104.96C523.904 110.56 521.384 118.68 521.384 129.32C521.384 140.147 523.904 148.36 528.944 153.96C533.984 159.56 540.331 162.36 547.984 162.36C555.451 162.36 561.704 159.56 566.744 153.96C571.784 148.173 574.304 139.96 574.304 129.32C574.304 118.68 571.784 110.56 566.744 104.96C561.704 99.36 555.451 96.56 547.984 96.56ZM886.425 50.92L847.505 208H785.905L762.105 110.28L737.745 208H675.865L637.505 50.92H692.105L709.185 155.92L733.825 50.92H792.345L818.105 156.76L835.465 50.92H886.425ZM945.96 50.92L979.56 138.84L1010.64 50.92H1071.68L972.28 283.04H911.8L950.16 201.28L884.64 50.92H945.96Z" fill="white"/>
</svg>
