<svg width="32" height="32" viewBox="0 0 32 32" fill="none" xmlns="http://www.w3.org/2000/svg">
<path d="M25.7733 7.57321L17.4133 3.06654C16.5333 2.58654 15.4667 2.58654 14.5867 3.06654L6.22666 7.57321C5.61332 7.90654 5.23999 8.54654 5.23999 9.27988C5.23999 9.99988 5.61332 10.6532 6.22666 10.9865L14.5867 15.4932C15.0267 15.7332 15.52 15.8532 16 15.8532C16.48 15.8532 16.9733 15.7332 17.4133 15.4932L25.7733 10.9865C26.3867 10.6532 26.76 10.0132 26.76 9.27988C26.76 8.54654 26.3867 7.90654 25.7733 7.57321Z" fill="#FF6129"/>
<path opacity="0.4" d="M13.2133 17.0535L5.42663 13.1602C4.82663 12.8668 4.13329 12.8935 3.57329 13.2402C2.99996 13.6002 2.66663 14.2002 2.66663 14.8668V22.2135C2.66663 23.4802 3.37329 24.6268 4.50663 25.2002L12.28 29.0935C12.5466 29.2268 12.84 29.2935 13.1333 29.2935C13.48 29.2935 13.8266 29.2002 14.1333 29.0135C14.7066 28.6668 15.04 28.0535 15.04 27.3868V20.0402C15.0533 18.7602 14.3466 17.6135 13.2133 17.0535Z" fill="#FF6129"/>
<path opacity="0.4" d="M28.4266 13.2402C27.8533 12.8935 27.16 12.8535 26.5733 13.1602L18.8 17.0535C17.6666 17.6269 16.96 18.7602 16.96 20.0402V27.3869C16.96 28.0535 17.2933 28.6669 17.8666 29.0135C18.1733 29.2002 18.52 29.2935 18.8666 29.2935C19.16 29.2935 19.4533 29.2269 19.72 29.0935L27.4933 25.2002C28.6266 24.6269 29.3333 23.4935 29.3333 22.2135V14.8669C29.3333 14.2002 29 13.6002 28.4266 13.2402Z" fill="#FF6129"/>
</svg>
