<svg width="32" height="32" viewBox="0 0 32 32" fill="none" xmlns="http://www.w3.org/2000/svg">
<path opacity="0.4" d="M23.9333 10.28L23.7467 10.1733L21.8933 9.10663L18.0667 6.8933C16.8933 6.2133 15.1067 6.2133 13.9333 6.8933L10.1067 9.10663L8.25334 10.1866L8.01334 10.32C5.62668 11.92 5.46667 12.2133 5.46667 14.7866V20.9333C5.46667 23.5066 5.62668 23.8 8.06668 25.44L13.9333 28.8266C14.52 29.1733 15.2533 29.3333 16 29.3333C16.7333 29.3333 17.48 29.1733 18.0667 28.8266L23.9867 25.4C26.3733 23.8 26.5333 23.5066 26.5333 20.9333V14.7866C26.5333 12.2133 26.3733 11.92 23.9333 10.28Z" fill="#FF6129"/>
<path d="M8.2533 10.1865L10.1066 9.1065L13.76 6.99984L13.9333 6.89317C15.1066 6.21317 16.8933 6.21317 18.0666 6.89317L18.24 6.99984L21.8933 9.1065L23.7466 10.1732V7.31984C23.7466 4.31984 22.0933 2.6665 19.0933 2.6665H12.8933C9.8933 2.6665 8.2533 4.31984 8.2533 7.31984V10.1865Z" fill="#FF6129"/>
<path d="M19.7867 17.7865L18.96 18.7999C18.8267 18.9465 18.7333 19.2399 18.7467 19.4399L18.8267 20.7465C18.88 21.5465 18.3067 21.9599 17.56 21.6665L16.3467 21.1865C16.16 21.1199 15.84 21.1199 15.6533 21.1865L14.44 21.6665C13.6933 21.9599 13.12 21.5465 13.1733 20.7465L13.2533 19.4399C13.2667 19.2399 13.1733 18.9465 13.04 18.7999L12.2133 17.7865C11.6933 17.1732 11.92 16.4932 12.6933 16.2932L13.96 15.9732C14.16 15.9199 14.4 15.7332 14.5067 15.5599L15.2133 14.4665C15.6533 13.7865 16.3467 13.7865 16.7867 14.4665L17.4933 15.5599C17.6 15.7332 17.84 15.9199 18.04 15.9732L19.3067 16.2932C20.08 16.4932 20.3067 17.1732 19.7867 17.7865Z" fill="#FF6129"/>
</svg>
