<svg width="24" height="24" viewBox="0 0 24 24" fill="none" xmlns="http://www.w3.org/2000/svg">
<path d="M12 18.2C14.2091 18.2 16 16.4091 16 14.2C16 11.9908 14.2091 10.2 12 10.2C9.79086 10.2 8 11.9908 8 14.2C8 16.4091 9.79086 18.2 12 18.2Z" stroke="black" stroke-width="2" stroke-miterlimit="10" stroke-linecap="round" stroke-linejoin="round"/>
<path d="M10.44 14.3001L11.09 14.9501C11.28 15.1401 11.59 15.1401 11.78 14.9601L13.56 13.3201" stroke="black" stroke-width="2" stroke-linecap="round" stroke-linejoin="round"/>
<path d="M7.99999 22H16C20.02 22 20.74 20.39 20.95 18.43L21.7 10.43C21.97 7.99 21.27 6 17 6H6.99999C2.72999 6 2.02999 7.99 2.29999 10.43L3.04999 18.43C3.25999 20.39 3.97999 22 7.99999 22Z" stroke="black" stroke-width="2" stroke-miterlimit="10" stroke-linecap="round" stroke-linejoin="round"/>
<path d="M8 6V5.2C8 3.43 8 2 11.2 2H12.8C16 2 16 3.43 16 5.2V6" stroke="black" stroke-width="2" stroke-miterlimit="10" stroke-linecap="round" stroke-linejoin="round"/>
<path d="M21.65 11C19.92 12.26 18 13.14 16.01 13.64" stroke="black" stroke-width="2" stroke-miterlimit="10" stroke-linecap="round" stroke-linejoin="round"/>
<path d="M2.62 11.27C4.29 12.41 6.11 13.22 8 13.68" stroke="black" stroke-width="2" stroke-miterlimit="10" stroke-linecap="round" stroke-linejoin="round"/>
</svg>
