<svg width="24" height="24" viewBox="0 0 24 24" fill="none" xmlns="http://www.w3.org/2000/svg">
<path d="M16.7 18.9801H7.29999C6.87999 18.9801 6.40999 18.6501 6.26999 18.2501L2.12999 6.67011C1.53999 5.01011 2.22999 4.50011 3.64999 5.52011L7.54999 8.31011C8.19999 8.76011 8.93999 8.53011 9.21999 7.80011L10.98 3.11011C11.54 1.61011 12.47 1.61011 13.03 3.11011L14.79 7.80011C15.07 8.53011 15.81 8.76011 16.45 8.31011L20.11 5.70011C21.67 4.58011 22.42 5.15011 21.78 6.96011L17.74 18.2701C17.59 18.6501 17.12 18.9801 16.7 18.9801Z" stroke="black" stroke-width="2" stroke-linecap="round" stroke-linejoin="round"/>
<path d="M6.5 22H17.5" stroke="black" stroke-width="2" stroke-linecap="round" stroke-linejoin="round"/>
<path d="M9.5 14H14.5" stroke="black" stroke-width="2" stroke-linecap="round" stroke-linejoin="round"/>
</svg>
