<svg width="50" height="50" viewBox="0 0 50 50" fill="none" xmlns="http://www.w3.org/2000/svg">
<circle cx="25" cy="25" r="25" fill="#3525B3"/>
<path d="M35 20.81V25.5H30.92C30.8 25.49 30.54 25.34 30.48 25.23L29.44 23.26C29.03 22.48 28.32 22.04 27.56 22.08C26.8 22.12 26.15 22.63 25.82 23.46L24.44 26.92L24.24 26.4C23.75 25.13 22.35 24.17 20.97 24.17L15 24.2V20.81C15 17.17 17.17 15 20.81 15H29.19C32.83 15 35 17.17 35 20.81Z" fill="white"/>
<path d="M35 29.1901V27.0001H30.92C30.25 27.0001 29.46 26.5201 29.15 25.9301L28.11 23.9601C27.83 23.4301 27.43 23.4601 27.21 24.0101L24.91 29.8201C24.66 30.4701 24.24 30.4701 23.98 29.8201L22.84 26.9401C22.57 26.2401 21.73 25.6701 20.98 25.6701L15 25.7001V29.1901C15 32.7701 17.1 34.9301 20.63 34.9901C20.74 35.0001 20.86 35.0001 20.97 35.0001H28.97C29.12 35.0001 29.27 35.0001 29.41 34.9901C32.92 34.9101 35 32.7601 35 29.1901Z" fill="white"/>
<path d="M15 25.7002V29.0102C14.98 28.6902 14.97 28.3502 14.97 28.0002V25.7002H15Z" fill="white"/>
</svg>
