<svg width="50" height="50" viewBox="0 0 50 50" fill="none" xmlns="http://www.w3.org/2000/svg">
<circle cx="25" cy="25" r="25" fill="#3525B3"/>
<path d="M25 17.6499C20.22 17.6499 16.33 21.5399 16.33 26.3199C16.33 31.0999 20.22 34.9999 25 34.9999C29.78 34.9999 33.67 31.1099 33.67 26.3299C33.67 21.5499 29.78 17.6499 25 17.6499ZM25.75 25.9999C25.75 26.4099 25.41 26.7499 25 26.7499C24.59 26.7499 24.25 26.4099 24.25 25.9999V20.9999C24.25 20.5899 24.59 20.2499 25 20.2499C25.41 20.2499 25.75 20.5899 25.75 20.9999V25.9999Z" fill="white"/>
<path d="M27.89 16.45H22.11C21.71 16.45 21.39 16.13 21.39 15.73C21.39 15.33 21.71 15 22.11 15H27.89C28.29 15 28.61 15.32 28.61 15.72C28.61 16.12 28.29 16.45 27.89 16.45Z" fill="white"/>
</svg>
