<svg width="50" height="50" viewBox="0 0 50 50" fill="none" xmlns="http://www.w3.org/2000/svg">
<circle cx="25" cy="25" r="25" fill="#3525B3"/>
<path d="M35 18.71V28.29C35 31.05 32.76 33.29 30 33.29H20C19.54 33.29 19.1 33.23 18.67 33.11C18.05 32.94 17.85 32.15 18.31 31.69L28.94 21.06C29.16 20.84 29.49 20.79 29.8 20.85C30.12 20.91 30.47 20.82 30.72 20.58L33.29 18C34.23 17.06 35 17.37 35 18.71Z" fill="white"/>
<path d="M27.64 20.36L17.17 30.83C16.69 31.31 15.89 31.19 15.57 30.59C15.2 29.91 15 29.12 15 28.29V18.71C15 17.37 15.77 17.06 16.71 18L19.29 20.59C19.68 20.97 20.32 20.97 20.71 20.59L24.29 17C24.68 16.61 25.32 16.61 25.71 17L27.65 18.94C28.03 19.33 28.03 19.97 27.64 20.36Z" fill="white"/>
</svg>
