<svg width="124" height="30" viewBox="0 0 124 30" fill="none" xmlns="http://www.w3.org/2000/svg">
<g clip-path="url(#clip0_2_853)">
<path d="M36.5781 21.1848H45.3235V18.5506H39.6864V8.62866H36.5781V21.1848Z" fill="white"/>
<path d="M50.5048 19.4285C49.258 19.4285 48.6083 18.3397 48.6083 16.7065C48.6083 15.0734 49.258 13.967 50.5048 13.967C51.7517 13.967 52.419 15.0734 52.419 16.7065C52.419 18.3397 51.7517 19.4285 50.5048 19.4285ZM50.5224 21.4656C53.42 21.4656 55.3165 19.4109 55.3165 16.7065C55.3165 14.0021 53.42 11.9475 50.5224 11.9475C47.6424 11.9475 45.7107 14.0021 45.7107 16.7065C45.7107 19.4109 47.6424 21.4656 50.5224 21.4656Z" fill="white"/>
<path d="M60.3319 24.2929C61.6666 24.2929 62.8432 23.9943 63.6334 23.2919C64.3534 22.6421 64.8276 21.6587 64.8276 20.3065V12.1933H62.088V13.1592H62.0529C61.5261 12.4041 60.7183 11.9299 59.5241 11.9299C57.2939 11.9299 55.7485 13.7914 55.7485 16.4255C55.7485 19.1826 57.6276 20.6929 59.6471 20.6929C60.7359 20.6929 61.4207 20.2538 61.9476 19.6568H62.0178V20.5524C62.0178 21.6412 61.5085 22.2733 60.2968 22.2733C59.3485 22.2733 58.8744 21.8694 58.7163 21.3953H55.9417C56.2227 23.2743 57.8559 24.2929 60.3319 24.2929ZM60.3144 18.568C59.2432 18.568 58.5407 17.6899 58.5407 16.3377C58.5407 14.968 59.2432 14.0899 60.3144 14.0899C61.5085 14.0899 62.1407 15.1085 62.1407 16.3202C62.1407 17.5846 61.5612 18.568 60.3144 18.568Z" fill="white"/>
<path d="M70.4605 19.4285C69.2137 19.4285 68.5639 18.3397 68.5639 16.7065C68.5639 15.0734 69.2137 13.967 70.4605 13.967C71.7074 13.967 72.3747 15.0734 72.3747 16.7065C72.3747 18.3397 71.7074 19.4285 70.4605 19.4285ZM70.4781 21.4656C73.3756 21.4656 75.2719 19.4109 75.2719 16.7065C75.2719 14.0021 73.3756 11.9475 70.4781 11.9475C67.5981 11.9475 65.6664 14.0021 65.6664 16.7065C65.6664 19.4109 67.5981 21.4656 70.4781 21.4656Z" fill="white"/>
<path d="M76.1082 21.1848H78.9706V12.1935H76.1082V21.1848ZM76.1082 10.9467H78.9706V8.62866H76.1082V10.9467Z" fill="white"/>
<path d="M80.2124 24.1524H83.0748V20.2538H83.11C83.6719 21.009 84.4973 21.4655 85.6563 21.4655C88.0095 21.4655 89.5724 19.6041 89.5724 16.689C89.5724 13.9846 88.1148 11.9299 85.7265 11.9299C84.4973 11.9299 83.6192 12.4743 83.0046 13.2821H82.9519V12.1933H80.2124V24.1524ZM84.9187 19.2529C83.6895 19.2529 82.987 18.2519 82.987 16.7943C82.987 15.3368 83.6192 14.2304 84.8661 14.2304C86.0953 14.2304 86.6748 15.249 86.6748 16.7943C86.6748 18.3221 86.0075 19.2529 84.9187 19.2529Z" fill="white"/>
<path d="M94.2326 21.4655C96.5857 21.4655 98.3243 20.447 98.3243 18.4802C98.3243 16.1797 96.4628 15.7758 94.8823 15.5124C93.7408 15.3016 92.7223 15.2138 92.7223 14.5816C92.7223 14.0197 93.2667 13.7563 93.9691 13.7563C94.7594 13.7563 95.3038 14.0021 95.4091 14.8099H98.0433C97.9028 13.0363 96.533 11.9299 93.9867 11.9299C91.8618 11.9299 90.1057 12.9133 90.1057 14.8099C90.1057 16.9172 91.774 17.3387 93.3369 17.6021C94.5311 17.8129 95.6199 17.9007 95.6199 18.7085C95.6199 19.288 95.0755 19.6041 94.215 19.6041C93.2667 19.6041 92.6696 19.1651 92.5643 18.2694H89.8599C89.9477 20.2538 91.5984 21.4655 94.2326 21.4655Z" fill="white"/>
<path d="M102.213 21.448C103.459 21.448 104.25 20.9563 104.899 20.0782H104.952V21.1846H107.692V12.1934H104.829V17.2158C104.829 18.287 104.232 19.0246 103.249 19.0246C102.336 19.0246 101.897 18.4802 101.897 17.4968V12.1934H99.0516V18.0938C99.0516 20.0958 100.14 21.448 102.213 21.448Z" fill="white"/>
<path d="M108.937 21.1846H111.799V16.1446C111.799 15.0733 112.326 14.3182 113.222 14.3182C114.082 14.3182 114.486 14.8802 114.486 15.846V21.1846H117.349V16.1446C117.349 15.0733 117.858 14.3182 118.771 14.3182C119.632 14.3182 120.036 14.8802 120.036 15.846V21.1846H122.898V15.3368C122.898 13.3172 121.879 11.9299 119.842 11.9299C118.683 11.9299 117.717 12.4216 117.015 13.5104H116.98C116.523 12.5446 115.628 11.9299 114.451 11.9299C113.152 11.9299 112.291 12.5446 111.729 13.4753H111.677V12.1933H108.937V21.1846Z" fill="white"/>
<path d="M19.1139 1.44641L16.2361 0.675293L13.8109 9.7262L11.6215 1.55498L8.74358 2.3261L11.1092 11.1545L5.21701 5.26235L3.11029 7.36908L9.57326 13.8321L1.52465 11.6755L0.75354 14.5533L9.54765 16.9097C9.44697 16.4754 9.3937 16.0229 9.3937 15.558C9.3937 12.2671 12.0615 9.59925 15.3524 9.59925C18.6434 9.59925 21.3112 12.2671 21.3112 15.558C21.3112 16.0199 21.2586 16.4696 21.1591 16.9013L29.1513 19.0428L29.9224 16.165L21.0933 13.7992L29.1425 11.6425L28.3713 8.76466L19.5426 11.1303L25.4348 5.23816L23.328 3.13144L16.9547 9.50478L19.1139 1.44641Z" fill="white"/>
<path d="M21.1513 16.9348C20.9046 17.9779 20.3837 18.915 19.6689 19.6658L25.4589 25.4559L27.5657 23.3492L21.1513 16.9348Z" fill="white"/>
<path d="M19.6105 19.7266C18.8871 20.4654 17.973 21.0167 16.9479 21.3008L19.0548 29.1638L21.9326 28.3926L19.6105 19.7266Z" fill="white"/>
<path d="M16.8404 21.3296C16.3648 21.4518 15.8663 21.5168 15.3525 21.5168C14.8022 21.5168 14.2692 21.4422 13.7632 21.3025L11.6544 29.1726L14.5322 29.9437L16.8404 21.3296Z" fill="white"/>
<path d="M13.6614 21.2733C12.6519 20.9751 11.7541 20.4167 11.0455 19.6758L5.24121 25.48L7.34794 27.5868L13.6614 21.2733Z" fill="white"/>
<path d="M10.9971 19.6247C10.3006 18.8791 9.79334 17.9545 9.55188 16.9275L1.53357 19.076L2.30468 21.9538L10.9971 19.6247Z" fill="white"/>
</g>
<defs>
<clipPath id="clip0_2_853">
<rect width="122.927" height="30" fill="white" transform="translate(0.521362)"/>
</clipPath>
</defs>
</svg>
