<svg width="125" height="30" viewBox="0 0 125 30" fill="none" xmlns="http://www.w3.org/2000/svg">
<g clip-path="url(#clip0_2_882)">
<path d="M38.0197 20.5888H46.765V17.9547H41.1279V8.03271H38.0197V20.5888Z" fill="white"/>
<path d="M51.9464 18.8328C50.6995 18.8328 50.0498 17.744 50.0498 16.1108C50.0498 14.4777 50.6995 13.3713 51.9464 13.3713C53.1932 13.3713 53.8605 14.4777 53.8605 16.1108C53.8605 17.744 53.1932 18.8328 51.9464 18.8328ZM51.9639 20.8699C54.8615 20.8699 56.7581 18.8152 56.7581 16.1108C56.7581 13.4064 54.8615 11.3518 51.9639 11.3518C49.0839 11.3518 47.1522 13.4064 47.1522 16.1108C47.1522 18.8152 49.0839 20.8699 51.9639 20.8699Z" fill="white"/>
<path d="M61.7735 23.6972C63.1081 23.6972 64.2847 23.3986 65.0749 22.6962C65.7949 22.0464 66.2691 21.063 66.2691 19.7108V11.5976H63.5296V12.5635H63.4945C62.9676 11.8084 62.1598 11.3342 60.9657 11.3342C58.7354 11.3342 57.1901 13.1957 57.1901 15.8298C57.1901 18.5869 59.0691 20.0972 61.0886 20.0972C62.1774 20.0972 62.8623 19.6581 63.3891 19.0611H63.4593V19.9567C63.4593 21.0454 62.9501 21.6776 61.7384 21.6776C60.7901 21.6776 60.3159 21.2737 60.1579 20.7996H57.3832C57.6642 22.6786 59.2974 23.6972 61.7735 23.6972ZM61.7559 17.9723C60.6847 17.9723 59.9823 17.0942 59.9823 15.742C59.9823 14.3723 60.6847 13.4942 61.7559 13.4942C62.9501 13.4942 63.5823 14.5128 63.5823 15.7245C63.5823 16.9889 63.0027 17.9723 61.7559 17.9723Z" fill="white"/>
<path d="M71.9021 18.8328C70.6552 18.8328 70.0055 17.744 70.0055 16.1108C70.0055 14.4777 70.6552 13.3713 71.9021 13.3713C73.1489 13.3713 73.8162 14.4777 73.8162 16.1108C73.8162 17.744 73.1489 18.8328 71.9021 18.8328ZM71.9196 20.8699C74.8172 20.8699 76.7138 18.8152 76.7138 16.1108C76.7138 13.4064 74.8172 11.3518 71.9196 11.3518C69.0396 11.3518 67.1079 13.4064 67.1079 16.1108C67.1079 18.8152 69.0396 20.8699 71.9196 20.8699Z" fill="white"/>
<path d="M77.5493 20.5888H80.4118V11.5976H77.5493V20.5888ZM77.5493 10.3508H80.4118V8.03271H77.5493V10.3508Z" fill="white"/>
<path d="M81.6542 23.5567H84.5166V19.6581H84.5517C85.1137 20.4133 85.939 20.8698 87.0981 20.8698C89.4512 20.8698 91.0142 19.0084 91.0142 16.0933C91.0142 13.3889 89.5566 11.3342 87.1683 11.3342C85.939 11.3342 85.061 11.8786 84.4464 12.6864H84.3937V11.5976H81.6542V23.5567ZM86.3605 18.6572C85.1312 18.6572 84.4288 17.6562 84.4288 16.1986C84.4288 14.7411 85.061 13.6347 86.3078 13.6347C87.5371 13.6347 88.1166 14.6533 88.1166 16.1986C88.1166 17.7264 87.4493 18.6572 86.3605 18.6572Z" fill="white"/>
<path d="M95.6744 20.8698C98.0276 20.8698 99.7661 19.8513 99.7661 17.8845C99.7661 15.584 97.9047 15.1801 96.3242 14.9167C95.1827 14.7059 94.1642 14.6181 94.1642 13.9859C94.1642 13.424 94.7086 13.1606 95.411 13.1606C96.2013 13.1606 96.7457 13.4064 96.851 14.2142H99.4852C99.3447 12.4406 97.9749 11.3342 95.4286 11.3342C93.3037 11.3342 91.5476 12.3176 91.5476 14.2142C91.5476 16.3215 93.2159 16.743 94.7788 17.0064C95.973 17.2172 97.0618 17.305 97.0618 18.1128C97.0618 18.6923 96.5174 19.0084 95.6569 19.0084C94.7086 19.0084 94.1115 18.5693 94.0061 17.6737H91.3018C91.3896 19.6581 93.0403 20.8698 95.6744 20.8698Z" fill="white"/>
<path d="M103.655 20.8523C104.901 20.8523 105.692 20.3606 106.341 19.4825H106.394V20.5889H109.134V11.5977H106.271V16.6201C106.271 17.6913 105.674 18.4289 104.691 18.4289C103.777 18.4289 103.338 17.8845 103.338 16.9011V11.5977H100.494V17.4981C100.494 19.5001 101.582 20.8523 103.655 20.8523Z" fill="white"/>
<path d="M110.378 20.5889H113.241V15.5489C113.241 14.4776 113.767 13.7225 114.663 13.7225C115.523 13.7225 115.927 14.2845 115.927 15.2503V20.5889H118.79V15.5489C118.79 14.4776 119.299 13.7225 120.212 13.7225C121.073 13.7225 121.477 14.2845 121.477 15.2503V20.5889H124.339V14.7411C124.339 12.7215 123.321 11.3342 121.283 11.3342C120.124 11.3342 119.159 11.8259 118.456 12.9147H118.421C117.964 11.9489 117.069 11.3342 115.892 11.3342C114.593 11.3342 113.732 11.9489 113.17 12.8796H113.118V11.5976H110.378V20.5889Z" fill="white"/>
<path fill-rule="evenodd" clip-rule="evenodd" d="M15.2079 29.3693C23.2901 29.3693 29.842 22.8174 29.842 14.7352C29.842 6.65301 23.2901 0.101074 15.2079 0.101074C7.12565 0.101074 0.57373 6.65301 0.57373 14.7352C0.57373 22.8174 7.12565 29.3693 15.2079 29.3693ZM19.7732 6.91827C19.9955 6.12892 19.2294 5.66214 18.5298 6.16056L8.76382 13.1178C8.00511 13.6583 8.12445 14.7352 8.94309 14.7352H11.5147V14.7153H16.5268L12.4429 16.1562L10.6425 22.5522C10.4203 23.3415 11.1863 23.8083 11.8859 23.3099L21.652 16.3526C22.4107 15.8121 22.2913 14.7352 21.4727 14.7352H17.5728L19.7732 6.91827Z" fill="white"/>
</g>
<defs>
<clipPath id="clip0_2_882">
<rect width="124.39" height="30" fill="white" transform="translate(0.0732422)"/>
</clipPath>
</defs>
</svg>
