<svg width="147" height="30" viewBox="0 0 147 30" fill="none" xmlns="http://www.w3.org/2000/svg">
<path d="M81.405 19.7023H84.3194V8.70941H81.405V19.7023ZM81.405 6.99515H84.3194V4.38086H81.405V6.99515Z" fill="white"/>
<path d="M86.1975 23.3023H89.1119V18.4594H89.1544C89.7756 19.4023 90.7831 20.0237 92.3256 20.0237C95.1544 20.0237 97.0831 17.7737 97.0831 14.2166C97.0831 10.788 95.2188 8.40942 92.3044 8.40942C90.8044 8.40942 89.7756 9.11661 89.0688 10.0809H89.0044V8.70942H86.1975V23.3023ZM91.7044 17.6023C89.9688 17.6023 89.0475 16.2952 89.0475 14.3023C89.0475 12.3309 89.7756 10.7666 91.5975 10.7666C93.3975 10.7666 94.1256 12.2237 94.1256 14.3023C94.1256 16.3809 93.1831 17.6023 91.7044 17.6023Z" fill="white"/>
<path d="M102.896 20.0237C105.64 20.0237 107.525 18.6952 107.525 16.488C107.525 13.9166 105.49 13.4023 103.646 13.0166C102.082 12.6952 100.625 12.6094 100.625 11.6666C100.625 10.8737 101.375 10.4452 102.511 10.4452C103.754 10.4452 104.504 10.8737 104.632 12.0523H107.268C107.054 9.84517 105.446 8.40942 102.554 8.40942C100.046 8.40942 98.0752 9.54517 98.0752 11.9237C98.0752 14.3237 100.004 14.8594 101.975 15.2452C103.475 15.5452 104.868 15.6523 104.868 16.7023C104.868 17.4737 104.14 17.9666 102.854 17.9666C101.546 17.9666 100.646 17.4094 100.454 16.1452H97.7539C97.9252 18.4809 99.7039 20.0237 102.896 20.0237Z" fill="white"/>
<path d="M118.59 19.7023V8.70947H115.675V15.0523C115.675 16.5095 114.84 17.538 113.468 17.538C112.225 17.538 111.647 16.8309 111.647 15.5452V8.70947H108.754V16.038C108.754 18.438 110.125 20.0023 112.568 20.0023C114.111 20.0023 114.968 19.4238 115.718 18.4167H115.783V19.7023H118.59Z" fill="white"/>
<path d="M120.474 19.7023H123.389V13.3166C123.389 11.8594 124.182 10.9166 125.361 10.9166C126.432 10.9166 127.053 11.5594 127.053 12.8023V19.7023H129.968V13.3166C129.968 11.8594 130.718 10.9166 131.939 10.9166C133.011 10.9166 133.632 11.5594 133.632 12.8023V19.7023H136.546V12.3094C136.546 9.90942 135.239 8.40942 132.924 8.40942C131.532 8.40942 130.374 9.13799 129.624 10.338H129.582C129.046 9.18086 127.932 8.40942 126.539 8.40942C125.018 8.40942 123.946 9.18086 123.346 10.188H123.282V8.70942H120.474V19.7023Z" fill="white"/>
<path d="M5.44824 19.7023H8.36252V4.38086H5.44824V19.7023Z" fill="white"/>
<path d="M15.4882 20.0237C18.8954 20.0237 21.2311 17.4952 21.2311 14.2166C21.2311 10.938 18.8954 8.40942 15.4882 8.40942C12.0811 8.40942 9.74536 10.938 9.74536 14.2166C9.74536 17.4952 12.0811 20.0237 15.4882 20.0237ZM15.4882 17.7952C13.6882 17.7952 12.7025 16.3594 12.7025 14.2166C12.7025 12.0737 13.6882 10.6166 15.4882 10.6166C17.2668 10.6166 18.2739 12.0737 18.2739 14.2166C18.2739 16.3594 17.2668 17.7952 15.4882 17.7952Z" fill="white"/>
<path d="M27.4286 23.4523C29.0572 23.4523 30.4715 23.0666 31.3929 22.2094C32.2072 21.4594 32.7 20.4094 32.7 18.8666V8.70942H29.8929V9.86661H29.85C29.1857 8.94517 28.1786 8.40942 26.8072 8.40942C24.0215 8.40942 22.05 10.5094 22.05 13.788C22.05 17.1094 24.45 19.038 26.8929 19.038C28.2857 19.038 29.1215 18.4809 29.7643 17.7523H29.8286V18.9523C29.8286 20.4523 29.0357 21.2452 27.3857 21.2452C26.0357 21.2452 25.4143 20.7094 25.1786 20.0237H22.2857C22.5857 22.1666 24.4286 23.4523 27.4286 23.4523ZM27.3857 16.7023C25.8857 16.7023 24.9 15.6094 24.9 13.7452C24.9 11.9023 25.8857 10.7452 27.3643 10.7452C29.1215 10.7452 29.9786 12.1166 29.9786 13.7237C29.9786 15.3523 29.2286 16.7023 27.3857 16.7023Z" fill="white"/>
<path d="M39.7836 20.0237C43.1908 20.0237 45.5265 17.4952 45.5265 14.2166C45.5265 10.938 43.1908 8.40942 39.7836 8.40942C36.3765 8.40942 34.0408 10.938 34.0408 14.2166C34.0408 17.4952 36.3765 20.0237 39.7836 20.0237ZM39.7836 17.7952C37.9836 17.7952 36.998 16.3594 36.998 14.2166C36.998 12.0737 37.9836 10.6166 39.7836 10.6166C41.5622 10.6166 42.5694 12.0737 42.5694 14.2166C42.5694 16.3594 41.5622 17.7952 39.7836 17.7952Z" fill="white"/>
<path d="M137.605 6.90482C137.605 6.41171 138.005 6.01196 138.498 6.01196H140.284C140.777 6.01196 141.177 6.41171 141.177 6.90482C141.177 7.39793 140.777 7.79768 140.284 7.79768H138.498C138.005 7.79768 137.605 7.39793 137.605 6.90482Z" fill="white"/>
<path fill-rule="evenodd" clip-rule="evenodd" d="M63.2003 1.25C70.1036 1.25 75.7005 6.84644 75.7005 13.75C75.7005 20.6536 70.1036 26.25 63.2003 26.25C56.2968 26.25 50.7003 20.6536 50.7003 13.75C50.7003 6.84644 56.2968 1.25 63.2003 1.25ZM62.7485 2.18537C61.3224 2.38606 59.9646 3.53193 58.9105 5.44838C58.6048 6.00427 58.3289 6.61841 58.0885 7.28153C59.5218 6.92136 61.0962 6.70901 62.7485 6.67617V2.18537ZM57.032 7.58175C57.331 6.64349 57.6967 5.78025 58.1188 5.01291C58.6413 4.06287 59.2614 3.24247 59.9601 2.61236C56.1608 3.71577 53.1661 6.71049 52.0626 10.5098C52.6928 9.81112 53.5131 9.191 54.4632 8.6685C55.2306 8.24644 56.0938 7.88069 57.032 7.58175ZM56.7318 8.63819C56.3716 10.0714 56.1593 11.6459 56.1264 13.2982H51.6356C51.8363 11.8721 52.9822 10.5142 54.8987 9.46025C55.4546 9.1545 56.0687 8.87862 56.7318 8.63819ZM57.0303 13.2982C57.0676 11.495 57.3272 9.80212 57.7567 8.30638C59.2524 7.87687 60.9453 7.61725 62.7485 7.57994V9.53175C62.0758 11.2539 60.7038 12.6257 58.9816 13.2982H57.0303ZM56.1264 14.2018H51.6356C51.8363 15.6279 52.9822 16.9857 54.8987 18.0397C55.4546 18.3455 56.0687 18.6214 56.7318 18.8618C56.3716 17.4286 56.1593 15.8541 56.1264 14.2018ZM57.7567 19.1936C57.3272 17.6979 57.0676 16.005 57.0303 14.2018H58.9816C60.7038 14.8743 62.0758 16.2461 62.7485 17.9683V19.9201C60.9453 19.8828 59.2524 19.6231 57.7567 19.1936ZM57.032 19.9182C56.0938 19.6193 55.2306 19.2536 54.4632 18.8315C53.5131 18.309 52.6928 17.6889 52.0626 16.9902C53.1661 20.7895 56.1608 23.7843 59.9601 24.8876C59.2614 24.2575 58.6413 23.4371 58.1188 22.4871C57.6967 21.7198 57.331 20.8565 57.032 19.9182ZM62.7485 25.3146C61.3224 25.1139 59.9646 23.9681 58.9105 22.0516C58.6048 21.4958 58.3289 20.8816 58.0885 20.2185C59.5218 20.5786 61.0962 20.791 62.7485 20.8238V25.3146ZM66.4405 24.8876C67.1392 24.2575 67.7593 23.4371 68.2818 22.4871C68.7036 21.7198 69.0699 20.8565 69.3686 19.9182C70.3068 19.6193 71.1699 19.2536 71.9374 18.8315C72.8874 18.309 73.708 17.6889 74.338 16.9902C73.2343 20.7895 70.2399 23.7843 66.4405 24.8876ZM68.3124 20.2185C68.0718 20.8816 67.7955 21.4958 67.4899 22.0516C66.436 23.9681 65.0781 25.1139 63.6521 25.3146V20.8238C65.3044 20.791 66.8788 20.5786 68.3124 20.2185ZM69.6686 18.8618C70.3318 18.6214 70.9461 18.3455 71.5018 18.0397C73.4186 16.9858 74.5643 15.6279 74.7649 14.2018H70.2743C70.2411 15.8541 70.0286 17.4286 69.6686 18.8618ZM69.3705 14.2018C69.333 16.005 69.0736 17.6979 68.6436 19.1936C67.1481 19.6231 65.4553 19.8828 63.6521 19.9201V17.9697C64.3246 16.2469 65.6969 14.8744 67.4195 14.2018H69.3705ZM70.2743 13.2982H74.7649C74.5643 11.8721 73.4186 10.5142 71.5018 9.46025C70.9461 9.1545 70.3318 8.87862 69.6686 8.63819C70.0286 10.0714 70.2411 11.6459 70.2743 13.2982ZM68.6436 8.30638C69.0736 9.80212 69.333 11.495 69.3705 13.2982H67.4196C65.6969 12.6256 64.3246 11.2531 63.6521 9.53031V7.57994C65.4553 7.61725 67.1481 7.87687 68.6436 8.30638ZM69.3686 7.58175C70.3068 7.88069 71.1699 8.24644 71.9374 8.6685C72.8874 9.191 73.708 9.81112 74.338 10.5098C73.2343 6.71049 70.2399 3.71577 66.4405 2.61236C67.1392 3.24247 67.7593 4.06287 68.2818 5.01291C68.7036 5.78025 69.0699 6.64349 69.3686 7.58175ZM63.6521 2.18537C65.0781 2.38606 66.436 3.53193 67.4899 5.44838C67.7955 6.00427 68.0718 6.61841 68.3124 7.28153C66.8788 6.92136 65.3044 6.70901 63.6521 6.67617V2.18537Z" fill="white"/>
</svg>
