<svg width="147" height="30" viewBox="0 0 147 30" fill="none" xmlns="http://www.w3.org/2000/svg">
<path d="M81.4202 19.7023H84.3345V8.70941H81.4202V19.7023ZM81.4202 6.99515H84.3345V4.38086H81.4202V6.99515Z" fill="white"/>
<path d="M86.2126 23.3023H89.127V18.4594H89.1695C89.7908 19.4023 90.7983 20.0237 92.3408 20.0237C95.1695 20.0237 97.0983 17.7737 97.0983 14.2166C97.0983 10.788 95.2339 8.40942 92.3195 8.40942C90.8195 8.40942 89.7908 9.11661 89.0839 10.0809H89.0195V8.70942H86.2126V23.3023ZM91.7195 17.6023C89.9839 17.6023 89.0626 16.2952 89.0626 14.3023C89.0626 12.3309 89.7908 10.7666 91.6126 10.7666C93.4126 10.7666 94.1408 12.2237 94.1408 14.3023C94.1408 16.3809 93.1983 17.6023 91.7195 17.6023Z" fill="white"/>
<path d="M102.912 20.0237C105.655 20.0237 107.54 18.6952 107.54 16.488C107.54 13.9166 105.505 13.4023 103.662 13.0166C102.097 12.6952 100.64 12.6094 100.64 11.6666C100.64 10.8737 101.39 10.4452 102.526 10.4452C103.769 10.4452 104.519 10.8737 104.647 12.0523H107.283C107.069 9.84517 105.462 8.40942 102.569 8.40942C100.062 8.40942 98.0903 9.54517 98.0903 11.9237C98.0903 14.3237 100.019 14.8594 101.99 15.2452C103.49 15.5452 104.883 15.6523 104.883 16.7023C104.883 17.4737 104.155 17.9666 102.869 17.9666C101.562 17.9666 100.662 17.4094 100.469 16.1452H97.769C97.9403 18.4809 99.719 20.0237 102.912 20.0237Z" fill="white"/>
<path d="M118.605 19.7023V8.70947H115.69V15.0523C115.69 16.5095 114.855 17.538 113.483 17.538C112.24 17.538 111.662 16.8309 111.662 15.5452V8.70947H108.769V16.038C108.769 18.438 110.14 20.0023 112.583 20.0023C114.127 20.0023 114.983 19.4238 115.733 18.4167H115.798V19.7023H118.605Z" fill="white"/>
<path d="M120.49 19.7023H123.404V13.3166C123.404 11.8594 124.197 10.9166 125.376 10.9166C126.447 10.9166 127.068 11.5594 127.068 12.8023V19.7023H129.983V13.3166C129.983 11.8594 130.733 10.9166 131.954 10.9166C133.026 10.9166 133.647 11.5594 133.647 12.8023V19.7023H136.562V12.3094C136.562 9.90942 135.254 8.40942 132.94 8.40942C131.547 8.40942 130.39 9.13799 129.64 10.338H129.597C129.062 9.18086 127.947 8.40942 126.554 8.40942C125.033 8.40942 123.962 9.18086 123.362 10.188H123.297V8.70942H120.49V19.7023Z" fill="white"/>
<path d="M5.46344 19.7023H8.37772V4.38086H5.46344V19.7023Z" fill="white"/>
<path d="M15.5035 20.0237C18.9106 20.0237 21.2463 17.4952 21.2463 14.2166C21.2463 10.938 18.9106 8.40942 15.5035 8.40942C12.0963 8.40942 9.76062 10.938 9.76062 14.2166C9.76062 17.4952 12.0963 20.0237 15.5035 20.0237ZM15.5035 17.7952C13.7035 17.7952 12.7178 16.3594 12.7178 14.2166C12.7178 12.0737 13.7035 10.6166 15.5035 10.6166C17.2821 10.6166 18.2892 12.0737 18.2892 14.2166C18.2892 16.3594 17.2821 17.7952 15.5035 17.7952Z" fill="white"/>
<path d="M27.4439 23.4523C29.0724 23.4523 30.4867 23.0666 31.4081 22.2094C32.2224 21.4594 32.7153 20.4094 32.7153 18.8666V8.70942H29.9082V9.86661H29.8653C29.201 8.94517 28.1939 8.40942 26.8224 8.40942C24.0367 8.40942 22.0653 10.5094 22.0653 13.788C22.0653 17.1094 24.4653 19.038 26.9082 19.038C28.301 19.038 29.1367 18.4809 29.7796 17.7523H29.8439V18.9523C29.8439 20.4523 29.051 21.2452 27.401 21.2452C26.051 21.2452 25.4296 20.7094 25.1939 20.0237H22.301C22.601 22.1666 24.4439 23.4523 27.4439 23.4523ZM27.401 16.7023C25.901 16.7023 24.9153 15.6094 24.9153 13.7452C24.9153 11.9023 25.901 10.7452 27.3796 10.7452C29.1367 10.7452 29.9939 12.1166 29.9939 13.7237C29.9939 15.3523 29.2439 16.7023 27.401 16.7023Z" fill="white"/>
<path d="M39.7988 20.0237C43.206 20.0237 45.5417 17.4952 45.5417 14.2166C45.5417 10.938 43.206 8.40942 39.7988 8.40942C36.3917 8.40942 34.056 10.938 34.056 14.2166C34.056 17.4952 36.3917 20.0237 39.7988 20.0237ZM39.7988 17.7952C37.9988 17.7952 37.0132 16.3594 37.0132 14.2166C37.0132 12.0737 37.9988 10.6166 39.7988 10.6166C41.5774 10.6166 42.5846 12.0737 42.5846 14.2166C42.5846 16.3594 41.5774 17.7952 39.7988 17.7952Z" fill="white"/>
<path d="M137.62 6.90482C137.62 6.41171 138.02 6.01196 138.513 6.01196H140.299C140.792 6.01196 141.192 6.41171 141.192 6.90482C141.192 7.39793 140.792 7.79768 140.299 7.79768H138.513C138.02 7.79768 137.62 7.39793 137.62 6.90482Z" fill="white"/>
<path fill-rule="evenodd" clip-rule="evenodd" d="M63.2155 1.25C70.1188 1.25 75.7157 6.84644 75.7157 13.75C75.7157 20.6536 70.1188 26.25 63.2155 26.25C56.312 26.25 50.7155 20.6536 50.7155 13.75C50.7155 6.84644 56.312 1.25 63.2155 1.25ZM62.7637 2.18537C61.3376 2.38606 59.9798 3.53193 58.9257 5.44838C58.62 6.00427 58.3441 6.61841 58.1037 7.28153C59.537 6.92136 61.1114 6.70901 62.7637 6.67617V2.18537ZM57.0472 7.58175C57.3462 6.64349 57.7119 5.78025 58.134 5.01291C58.6565 4.06287 59.2766 3.24247 59.9753 2.61236C56.176 3.71577 53.1813 6.71049 52.0778 10.5098C52.708 9.81112 53.5283 9.191 54.4784 8.6685C55.2458 8.24644 56.109 7.88069 57.0472 7.58175ZM56.747 8.63819C56.3868 10.0714 56.1745 11.6459 56.1416 13.2982H51.6508C51.8515 11.8721 52.9974 10.5142 54.9139 9.46025C55.4698 9.1545 56.0839 8.87862 56.747 8.63819ZM57.0455 13.2982C57.0828 11.495 57.3424 9.80212 57.7719 8.30638C59.2676 7.87687 60.9605 7.61725 62.7637 7.57994V9.53175C62.091 11.2539 60.719 12.6257 58.9968 13.2982H57.0455ZM56.1416 14.2018H51.6508C51.8515 15.6279 52.9974 16.9857 54.9139 18.0397C55.4698 18.3455 56.0839 18.6214 56.747 18.8618C56.3868 17.4286 56.1745 15.8541 56.1416 14.2018ZM57.7719 19.1936C57.3424 17.6979 57.0828 16.005 57.0455 14.2018H58.9968C60.719 14.8743 62.091 16.2461 62.7637 17.9683V19.9201C60.9605 19.8828 59.2676 19.6231 57.7719 19.1936ZM57.0472 19.9182C56.109 19.6193 55.2458 19.2536 54.4784 18.8315C53.5283 18.309 52.708 17.6889 52.0778 16.9902C53.1813 20.7895 56.176 23.7843 59.9753 24.8876C59.2766 24.2575 58.6565 23.4371 58.134 22.4871C57.7119 21.7198 57.3462 20.8565 57.0472 19.9182ZM62.7637 25.3146C61.3376 25.1139 59.9798 23.9681 58.9257 22.0516C58.62 21.4958 58.3441 20.8816 58.1037 20.2185C59.537 20.5786 61.1114 20.791 62.7637 20.8238V25.3146ZM66.4557 24.8876C67.1544 24.2575 67.7745 23.4371 68.297 22.4871C68.7188 21.7198 69.0851 20.8565 69.3838 19.9182C70.322 19.6193 71.1851 19.2536 71.9526 18.8315C72.9026 18.309 73.7232 17.6889 74.3532 16.9902C73.2495 20.7895 70.2551 23.7843 66.4557 24.8876ZM68.3276 20.2185C68.087 20.8816 67.8107 21.4958 67.5051 22.0516C66.4512 23.9681 65.0933 25.1139 63.6673 25.3146V20.8238C65.3196 20.791 66.894 20.5786 68.3276 20.2185ZM69.6838 18.8618C70.347 18.6214 70.9613 18.3455 71.517 18.0397C73.4338 16.9858 74.5795 15.6279 74.7801 14.2018H70.2895C70.2563 15.8541 70.0438 17.4286 69.6838 18.8618ZM69.3857 14.2018C69.3482 16.005 69.0888 17.6979 68.6588 19.1936C67.1633 19.6231 65.4705 19.8828 63.6673 19.9201V17.9697C64.3398 16.2469 65.7121 14.8744 67.4347 14.2018H69.3857ZM70.2895 13.2982H74.7801C74.5795 11.8721 73.4338 10.5142 71.517 9.46025C70.9613 9.1545 70.347 8.87862 69.6838 8.63819C70.0438 10.0714 70.2563 11.6459 70.2895 13.2982ZM68.6588 8.30638C69.0888 9.80212 69.3482 11.495 69.3857 13.2982H67.4348C65.7121 12.6256 64.3398 11.2531 63.6673 9.53031V7.57994C65.4705 7.61725 67.1633 7.87687 68.6588 8.30638ZM69.3838 7.58175C70.322 7.88069 71.1851 8.24644 71.9526 8.6685C72.9026 9.191 73.7232 9.81112 74.3532 10.5098C73.2495 6.71049 70.2551 3.71577 66.4557 2.61236C67.1544 3.24247 67.7745 4.06287 68.297 5.01291C68.7188 5.78025 69.0851 6.64349 69.3838 7.58175ZM63.6673 2.18537C65.0933 2.38606 66.4512 3.53193 67.5051 5.44838C67.8107 6.00427 68.087 6.61841 68.3276 7.28153C66.894 6.92136 65.3196 6.70901 63.6673 6.67617V2.18537Z" fill="white"/>
</svg>
