<svg width="125" height="30" viewBox="0 0 125 30" fill="none" xmlns="http://www.w3.org/2000/svg">
<g clip-path="url(#clip0_2_906)">
<path d="M37.6086 21.456H46.3539V18.8219H40.7169V8.8999H37.6086V21.456Z" fill="white"/>
<path d="M51.5352 19.7C50.2884 19.7 49.6386 18.6112 49.6386 16.978C49.6386 15.3448 50.2884 14.2385 51.5352 14.2385C52.7821 14.2385 53.4494 15.3448 53.4494 16.978C53.4494 18.6112 52.7821 19.7 51.5352 19.7ZM51.5528 21.737C54.4504 21.737 56.3469 19.6824 56.3469 16.978C56.3469 14.2736 54.4504 12.219 51.5528 12.219C48.6728 12.219 46.7411 14.2736 46.7411 16.978C46.7411 19.6824 48.6728 21.737 51.5528 21.737Z" fill="white"/>
<path d="M61.3623 24.5643C62.697 24.5643 63.8736 24.2658 64.6638 23.5634C65.3838 22.9136 65.858 21.9302 65.858 20.578V12.4648H63.1184V13.4307H63.0833C62.5565 12.6756 61.7487 12.2014 60.5545 12.2014C58.3243 12.2014 56.7789 14.0629 56.7789 16.697C56.7789 19.4541 58.658 20.9643 60.6775 20.9643C61.7663 20.9643 62.4511 20.5253 62.978 19.9282H63.0482V20.8239C63.0482 21.9126 62.5389 22.5448 61.3272 22.5448C60.3789 22.5448 59.9048 22.1409 59.7467 21.6668H56.9721C57.2531 23.5458 58.8862 24.5643 61.3623 24.5643ZM61.3448 18.8395C60.2736 18.8395 59.5711 17.9614 59.5711 16.6092C59.5711 15.2395 60.2736 14.3614 61.3448 14.3614C62.5389 14.3614 63.1711 15.38 63.1711 16.5917C63.1711 17.8561 62.5916 18.8395 61.3448 18.8395Z" fill="white"/>
<path d="M71.4909 19.7C70.2441 19.7 69.5943 18.6112 69.5943 16.978C69.5943 15.3448 70.2441 14.2385 71.4909 14.2385C72.7377 14.2385 73.4048 15.3448 73.4048 16.978C73.4048 18.6112 72.7377 19.7 71.4909 19.7ZM71.5085 21.737C74.4058 21.737 76.3023 19.6824 76.3023 16.978C76.3023 14.2736 74.4058 12.219 71.5085 12.219C68.6285 12.219 66.6968 14.2736 66.6968 16.978C66.6968 19.6824 68.6285 21.737 71.5085 21.737Z" fill="white"/>
<path d="M77.1387 21.456H80.0011V12.4648H77.1387V21.456ZM77.1387 11.218H80.0011V8.8999H77.1387V11.218Z" fill="white"/>
<path d="M81.2429 24.4239H84.1053V20.5253H84.1404C84.7024 21.2804 85.5277 21.737 86.6868 21.737C89.0399 21.737 90.6029 19.8756 90.6029 16.9604C90.6029 14.256 89.1453 12.2014 86.757 12.2014C85.5277 12.2014 84.6497 12.7458 84.035 13.5536H83.9824V12.4648H81.2429V24.4239ZM85.9492 19.5243C84.7199 19.5243 84.0175 18.5234 84.0175 17.0658C84.0175 15.6082 84.6497 14.5019 85.8965 14.5019C87.1258 14.5019 87.7053 15.5204 87.7053 17.0658C87.7053 18.5936 87.038 19.5243 85.9492 19.5243Z" fill="white"/>
<path d="M95.2631 21.737C97.6162 21.737 99.3548 20.7185 99.3548 18.7517C99.3548 16.4512 97.4933 16.0473 95.9128 15.7839C94.7714 15.5731 93.7528 15.4853 93.7528 14.8531C93.7528 14.2912 94.2972 14.0278 94.9997 14.0278C95.7899 14.0278 96.3343 14.2736 96.4396 15.0814H99.0738C98.9333 13.3078 97.5635 12.2014 95.0172 12.2014C92.8923 12.2014 91.1362 13.1848 91.1362 15.0814C91.1362 17.1887 92.8045 17.6102 94.3675 17.8736C95.5616 18.0843 96.6504 18.1721 96.6504 18.98C96.6504 19.5595 96.106 19.8756 95.2455 19.8756C94.2972 19.8756 93.7001 19.4365 93.5948 18.5409H90.8904C90.9782 20.5253 92.6289 21.737 95.2631 21.737Z" fill="white"/>
<path d="M103.243 21.7195C104.49 21.7195 105.28 21.2278 105.93 20.3497H105.983V21.4561H108.722V12.4648H105.86V17.4873C105.86 18.5585 105.263 19.2961 104.279 19.2961C103.366 19.2961 102.927 18.7517 102.927 17.7683V12.4648H100.082V18.3653C100.082 20.3673 101.171 21.7195 103.243 21.7195Z" fill="white"/>
<path d="M109.967 21.4561H112.83V16.4161C112.83 15.3448 113.357 14.5897 114.252 14.5897C115.113 14.5897 115.517 15.1517 115.517 16.1175V21.4561H118.379V16.4161C118.379 15.3448 118.888 14.5897 119.802 14.5897C120.662 14.5897 121.066 15.1517 121.066 16.1175V21.4561H123.928V15.6082C123.928 13.5887 122.91 12.2014 120.873 12.2014C119.714 12.2014 118.748 12.6931 118.046 13.7819H118.01C117.554 12.8161 116.658 12.2014 115.482 12.2014C114.182 12.2014 113.322 12.8161 112.76 13.7468H112.707V12.4648H109.967V21.4561Z" fill="white"/>
<path fill-rule="evenodd" clip-rule="evenodd" d="M14.7968 29.5048C22.8791 29.5048 29.4309 22.9529 29.4309 14.8707C29.4309 6.7885 22.8791 0.236572 14.7968 0.236572C6.71458 0.236572 0.162659 6.7885 0.162659 14.8707C0.162659 22.9529 6.71458 29.5048 14.7968 29.5048ZM17.0556 11.5433C18.303 10.2958 18.303 8.27332 17.0556 7.02583C15.8081 5.77836 13.7856 5.77836 12.5381 7.02583C11.2907 8.27332 11.2907 10.2958 12.5381 11.5433L14.7968 13.802L17.0556 11.5433ZM18.1242 17.1295C19.3717 18.377 21.3942 18.377 22.6417 17.1295C23.8891 15.882 23.8891 13.8595 22.6417 12.612C21.3942 11.3646 19.3717 11.3646 18.1242 12.612L15.8655 14.8708L18.1242 17.1295ZM17.0556 22.7156C18.303 21.4681 18.303 19.4456 17.0556 18.1981L14.7968 15.9394L12.5381 18.1981C11.2907 19.4456 11.2907 21.4681 12.5381 22.7156C13.7856 23.9631 15.8081 23.9631 17.0556 22.7156ZM6.9519 17.1295C5.70446 15.882 5.70446 13.8595 6.9519 12.612C8.19941 11.3646 10.2219 11.3646 11.4694 12.612L13.7281 14.8708L11.4694 17.1295C10.2219 18.377 8.19941 18.377 6.9519 17.1295Z" fill="white"/>
</g>
<defs>
<clipPath id="clip0_2_906">
<rect width="124.39" height="30" fill="white" transform="translate(0.0884399)"/>
</clipPath>
</defs>
</svg>
