<svg width="16" height="16" viewBox="0 0 16 16" fill="none" xmlns="http://www.w3.org/2000/svg">
<path d="M9.00767 2.86597L10.0693 4.99479C10.2133 5.28345 10.5912 5.57212 10.933 5.62624L12.8584 5.95096C14.082 6.14941 14.3699 7.05147 13.4882 7.93548L11.9947 9.43286C11.7428 9.68544 11.5988 10.1726 11.6888 10.5334L12.1207 12.3916C12.4625 13.8529 11.6888 14.4302 10.3932 13.6544L8.59381 12.59C8.26991 12.3916 7.73009 12.3916 7.40619 12.59L5.60678 13.6544C4.31121 14.4122 3.53746 13.8529 3.87935 12.3916L4.31121 10.5334C4.38319 10.1906 4.25723 9.68544 4.00531 9.43286L2.5118 7.93548C1.63009 7.05147 1.91799 6.16745 3.14159 5.95096L5.06696 5.62624C5.39086 5.57212 5.76873 5.28345 5.91268 4.99479L6.97434 2.86597C7.49616 1.71134 8.43186 1.71134 9.00767 2.86597Z" stroke="#FF6129" stroke-width="1.5" stroke-linecap="round" stroke-linejoin="round"/>
</svg>
