<svg width="32" height="32" viewBox="0 0 32 32" fill="none" xmlns="http://www.w3.org/2000/svg">
<path d="M9.33337 7.6665C8.78671 7.6665 8.33337 7.21317 8.33337 6.6665V2.6665C8.33337 2.11984 8.78671 1.6665 9.33337 1.6665C9.88004 1.6665 10.3334 2.11984 10.3334 2.6665V6.6665C10.3334 7.21317 9.88004 7.6665 9.33337 7.6665Z" fill="#FF6129"/>
<path d="M20 7.6665C19.4533 7.6665 19 7.21317 19 6.6665V2.6665C19 2.11984 19.4533 1.6665 20 1.6665C20.5467 1.6665 21 2.11984 21 2.6665V6.6665C21 7.21317 20.5467 7.6665 20 7.6665Z" fill="#FF6129"/>
<path opacity="0.4" d="M26.6666 11.3332V22.6665C26.6666 26.6665 24.6666 29.3332 20 29.3332H9.33329C4.66663 29.3332 2.66663 26.6665 2.66663 22.6665V11.3332C2.66663 7.33317 4.66663 4.6665 9.33329 4.6665H20C24.6666 4.6665 26.6666 7.33317 26.6666 11.3332Z" fill="#FF6129"/>
<path d="M17.3334 15.6665H9.33337C8.78671 15.6665 8.33337 15.2132 8.33337 14.6665C8.33337 14.1198 8.78671 13.6665 9.33337 13.6665H17.3334C17.88 13.6665 18.3334 14.1198 18.3334 14.6665C18.3334 15.2132 17.88 15.6665 17.3334 15.6665Z" fill="#FF6129"/>
<path d="M13.3334 22.3335H9.33337C8.78671 22.3335 8.33337 21.8802 8.33337 21.3335C8.33337 20.7868 8.78671 20.3335 9.33337 20.3335H13.3334C13.88 20.3335 14.3334 20.7868 14.3334 21.3335C14.3334 21.8802 13.88 22.3335 13.3334 22.3335Z" fill="#FF6129"/>
<path d="M28 18.1732C26.8133 17.2265 25.3066 16.6665 23.6666 16.6665C22.0266 16.6665 20.4933 17.2398 19.2933 18.2131C17.68 19.4798 16.6666 21.4665 16.6666 23.6665C16.6666 24.9732 17.04 26.2265 17.68 27.2665C18.1733 28.0799 18.8133 28.7865 19.5733 29.3332C20.7199 30.1732 22.1333 30.6665 23.6666 30.6665C25.44 30.6665 27.04 30.0132 28.2666 28.9198C28.8133 28.4665 29.2799 27.9065 29.6533 27.2665C30.2933 26.2265 30.6666 24.9732 30.6666 23.6665C30.6666 21.4398 29.6266 19.4532 28 18.1732ZM23.6666 26.9998C23.6666 25.1598 22.1733 23.6665 20.3333 23.6665C22.1733 23.6665 23.6666 22.1732 23.6666 20.3332C23.6666 22.1732 25.16 23.6665 27 23.6665C25.16 23.6665 23.6666 25.1598 23.6666 26.9998Z" fill="#FF6129"/>
</svg>
