<svg width="24" height="24" viewBox="0 0 24 24" fill="none" xmlns="http://www.w3.org/2000/svg">
<path d="M11.97 2C6.44997 2 1.96997 6.48 1.96997 12C1.96997 17.52 6.44997 22 11.97 22C17.49 22 21.97 17.52 21.97 12C21.97 6.48 17.5 2 11.97 2ZM14.97 14.23L12.07 15.9C11.71 16.11 11.31 16.21 10.92 16.21C10.52 16.21 10.13 16.11 9.76997 15.9C9.04997 15.48 8.61997 14.74 8.61997 13.9V10.55C8.61997 9.72 9.04997 8.97 9.76997 8.55C10.49 8.13 11.35 8.13 12.08 8.55L14.98 10.22C15.7 10.64 16.13 11.38 16.13 12.22C16.13 13.06 15.7 13.81 14.97 14.23Z" fill="black"/>
</svg>
