<svg width="32" height="32" viewBox="0 0 32 32" fill="none" xmlns="http://www.w3.org/2000/svg">
<path opacity="0.4" d="M29.3333 10.4132V21.5865C29.3333 26.4398 26.44 29.3332 21.5866 29.3332H10.4133C5.55996 29.3332 2.66663 26.4398 2.66663 21.5865V10.4132C2.66663 9.73317 2.71996 9.07984 2.83996 8.47984C3.51996 4.81317 6.22663 2.67984 10.36 2.6665H21.64C25.7733 2.67984 28.48 4.81317 29.16 8.47984C29.28 9.07984 29.3333 9.73317 29.3333 10.4132Z" fill="#FF6129"/>
<path d="M29.3333 10.4132V10.4798H2.66663V10.4132C2.66663 9.73317 2.71996 9.07984 2.83996 8.47984H10.36V2.6665H12.36V8.47984H19.64V2.6665H21.64V8.47984H29.16C29.28 9.07984 29.3333 9.73317 29.3333 10.4132Z" fill="#FF6129"/>
<path d="M19.2533 16.9599L16.48 15.3599C15.4533 14.7733 14.4666 14.6933 13.6933 15.1333C12.92 15.5733 12.4933 16.4799 12.4933 17.6533V20.8533C12.4933 22.0266 12.92 22.9333 13.6933 23.3733C14.0266 23.5599 14.4 23.6533 14.7866 23.6533C15.32 23.6533 15.8933 23.4799 16.48 23.1466L19.2533 21.5466C20.28 20.9599 20.84 20.1333 20.84 19.2399C20.84 18.3466 20.2666 17.5599 19.2533 16.9599Z" fill="#FF6129"/>
</svg>
